<svg width="20" height="20" viewBox="0 0 20 20" fill="none" xmlns="http://www.w3.org/2000/svg">
<g clip-path="url(#clip0_1836_769)">
<path d="M9.99999 1.66675C5.39999 1.66675 1.66666 5.40008 1.66666 10.0001C1.66666 14.6001 5.39999 18.3334 9.99999 18.3334C14.6 18.3334 18.3333 14.6001 18.3333 10.0001C18.3333 5.40008 14.6 1.66675 9.99999 1.66675ZM11.175 15.0751V15.5584C11.175 16.1667 10.675 16.6667 10.0667 16.6667H10.0583C9.44999 16.6667 8.94999 16.1667 8.94999 15.5584V15.0584C7.84166 14.8251 6.85832 14.2167 6.44166 13.1917C6.24999 12.7334 6.60832 12.2251 7.10832 12.2251H7.30832C7.61666 12.2251 7.86666 12.4334 7.98332 12.7251C8.22499 13.3501 8.85832 13.7834 10.075 13.7834C11.7083 13.7834 12.075 12.9667 12.075 12.4584C12.075 11.7667 11.7083 11.1167 9.84999 10.6751C7.78332 10.1751 6.36666 9.32508 6.36666 7.61675C6.36666 6.18342 7.52499 5.25008 8.95832 4.94175V4.44175C8.95832 3.83341 9.45832 3.33341 10.0667 3.33341H10.075C10.6833 3.33341 11.1833 3.83341 11.1833 4.44175V4.95841C12.3333 5.24175 13.0583 5.95842 13.375 6.84175C13.5417 7.30008 13.1917 7.78342 12.7 7.78342H12.4833C12.175 7.78342 11.925 7.56675 11.8417 7.26675C11.65 6.63342 11.125 6.22508 10.075 6.22508C8.82499 6.22508 8.07499 6.79175 8.07499 7.59175C8.07499 8.29175 8.61666 8.75008 10.3 9.18342C11.9833 9.61675 13.7833 10.3417 13.7833 12.4417C13.7667 13.9667 12.625 14.8001 11.175 15.0751Z" fill="#6E8BB7"/>
</g>
<defs>
<clipPath id="clip0_1836_769">
<rect width="20" height="20" fill="white"/>
</clipPath>
</defs>
</svg>
