<svg width="20" height="20" viewBox="0 0 20 20" fill="none" xmlns="http://www.w3.org/2000/svg">
<path d="M9.16667 6.66675C9.16667 7.32979 8.90327 7.96567 8.43443 8.43451C7.96559 8.90336 7.32971 9.16675 6.66667 9.16675C6.00363 9.16675 5.36774 8.90336 4.8989 8.43451C4.43006 7.96567 4.16667 7.32979 4.16667 6.66675C4.16667 6.00371 4.43006 5.36782 4.8989 4.89898C5.36774 4.43014 6.00363 4.16675 6.66667 4.16675C7.32971 4.16675 7.96559 4.43014 8.43443 4.89898C8.90327 5.36782 9.16667 6.00371 9.16667 6.66675ZM15.8333 6.66675C15.8333 6.99505 15.7687 7.32014 15.643 7.62346C15.5174 7.92677 15.3332 8.20237 15.1011 8.43451C14.869 8.66666 14.5934 8.85081 14.29 8.97645C13.9867 9.10208 13.6616 9.16675 13.3333 9.16675C13.005 9.16675 12.6799 9.10208 12.3766 8.97645C12.0733 8.85081 11.7977 8.66666 11.5656 8.43451C11.3334 8.20237 11.1493 7.92677 11.0236 7.62346C10.898 7.32014 10.8333 6.99505 10.8333 6.66675C10.8333 6.00371 11.0967 5.36782 11.5656 4.89898C12.0344 4.43014 12.6703 4.16675 13.3333 4.16675C13.9964 4.16675 14.6323 4.43014 15.1011 4.89898C15.5699 5.36782 15.8333 6.00371 15.8333 6.66675ZM12.4417 15.8334C12.48 15.5609 12.5 15.2834 12.5 15.0001C12.5019 13.6908 12.0614 12.4193 11.25 11.3917C11.8834 11.0261 12.6019 10.8335 13.3333 10.8335C14.0647 10.8335 14.7832 11.026 15.4166 11.3917C16.05 11.7574 16.576 12.2834 16.9417 12.9168C17.3074 13.5502 17.5 14.2687 17.5 15.0001V15.8334H12.4417ZM6.66667 10.8334C7.77174 10.8334 8.83154 11.2724 9.61294 12.0538C10.3943 12.8352 10.8333 13.895 10.8333 15.0001V15.8334H2.5V15.0001C2.5 13.895 2.93899 12.8352 3.72039 12.0538C4.50179 11.2724 5.5616 10.8334 6.66667 10.8334Z" fill="#6E8BB7"/>
</svg>
