<svg width="20" height="20" viewBox="0 0 20 20" fill="none" xmlns="http://www.w3.org/2000/svg">
<g clip-path="url(#clip0_1836_764)">
<path d="M13.5333 6.46675C12.5583 5.49175 11.2833 5.00008 9.99999 5.00008V10.0001L6.46666 13.5334C8.41666 15.4834 11.5833 15.4834 13.5417 13.5334C15.4917 11.5834 15.4917 8.41675 13.5333 6.46675ZM9.99999 1.66675C5.39999 1.66675 1.66666 5.40008 1.66666 10.0001C1.66666 14.6001 5.39999 18.3334 9.99999 18.3334C14.6 18.3334 18.3333 14.6001 18.3333 10.0001C18.3333 5.40008 14.6 1.66675 9.99999 1.66675ZM9.99999 16.6667C6.31666 16.6667 3.33332 13.6834 3.33332 10.0001C3.33332 6.31675 6.31666 3.33341 9.99999 3.33341C13.6833 3.33341 16.6667 6.31675 16.6667 10.0001C16.6667 13.6834 13.6833 16.6667 9.99999 16.6667Z" fill="#6E8BB7"/>
</g>
<defs>
<clipPath id="clip0_1836_764">
<rect width="20" height="20" fill="white"/>
</clipPath>
</defs>
</svg>
