<svg width="20" height="20" viewBox="0 0 20 20" fill="none" xmlns="http://www.w3.org/2000/svg">
<g clip-path="url(#clip0_1836_748)">
<path d="M10.8333 6.66659C10.8333 4.82492 9.34168 3.33325 7.50001 3.33325C5.65834 3.33325 4.16668 4.82492 4.16668 6.66659C4.16668 8.50825 5.65834 9.99992 7.50001 9.99992C9.34168 9.99992 10.8333 8.50825 10.8333 6.66659ZM12.5 8.33325V9.99992H15V12.4999H16.6667V9.99992H19.1667V8.33325H16.6667V5.83325H15V8.33325H12.5ZM0.833344 14.9999V16.6666H14.1667V14.9999C14.1667 12.7833 9.72501 11.6666 7.50001 11.6666C5.27501 11.6666 0.833344 12.7833 0.833344 14.9999Z" fill="#6E8BB7"/>
</g>
<defs>
<clipPath id="clip0_1836_748">
<rect width="20" height="20" fill="white"/>
</clipPath>
</defs>
</svg>
