<svg width="13" height="13" viewBox="0 0 13 13" fill="none" xmlns="http://www.w3.org/2000/svg">
<path d="M6.0003 12.0001C6.0003 12.2652 6.10561 12.5196 6.29308 12.7071C6.48061 12.8946 6.73492 12.9999 7.00008 12.9999C7.26525 12.9999 7.51955 12.8946 7.70708 12.7071L12.7071 7.70708C12.8946 7.51955 12.9999 7.26525 12.9999 7.00008C12.9999 6.73492 12.8946 6.48061 12.7071 6.29308L7.70708 1.29308C7.61483 1.19757 7.50449 1.12139 7.38249 1.06898C7.26048 1.01657 7.12926 0.988985 6.99648 0.987831C6.8637 0.986677 6.73202 1.01198 6.60913 1.06226C6.48623 1.11254 6.37458 1.18679 6.28069 1.28069C6.18679 1.37458 6.11254 1.48623 6.06226 1.60913C6.01198 1.73202 5.98668 1.8637 5.98783 1.99648C5.98898 2.12926 6.01657 2.26048 6.06898 2.38249C6.12139 2.50449 6.19757 2.61483 6.29308 2.70708L10.5861 7.00008L6.29308 11.2931C6.10561 11.4806 6.0003 11.7349 6.0003 12.0001Z" fill="#1A2024"/>
<path d="M0.000244141 12C0.000244141 12.2652 0.10556 12.5195 0.293031 12.707C0.480558 12.8945 0.734866 12.9998 1.00003 12.9998C1.26519 12.9998 1.5195 12.8945 1.70703 12.707L6.70703 7.70704C6.8945 7.51951 6.99982 7.26521 6.99982 7.00004C6.99982 6.73488 6.8945 6.48057 6.70703 6.29304L1.70703 1.29304C1.51843 1.11088 1.26583 1.01009 1.00363 1.01237C0.741432 1.01465 0.49062 1.11981 0.305212 1.30522C0.119804 1.49063 0.0146346 1.74144 0.0123563 2.00364C0.010078 2.26584 0.110873 2.51844 0.293031 2.70704L4.58603 7.00004L0.293031 11.293C0.10556 11.4806 0.000244141 11.7349 0.000244141 12Z" fill="#1A2024"/>
</svg>
