<svg width="20" height="20" viewBox="0 0 20 20" fill="none" xmlns="http://www.w3.org/2000/svg">
<path d="M6.31668 3.39992L5.12501 2.20825C3.12501 3.73325 1.80835 6.08325 1.69168 8.74992H3.35835C3.48335 6.54158 4.61668 4.60825 6.31668 3.39992ZM16.6417 8.74992H18.3083C18.1833 6.08325 16.8667 3.73325 14.875 2.20825L13.6917 3.39992C15.375 4.60825 16.5167 6.54158 16.6417 8.74992ZM15 9.16658C15 6.60825 13.6333 4.46659 11.25 3.89992V3.33325C11.25 2.64159 10.6917 2.08325 10 2.08325C9.30835 2.08325 8.75001 2.64159 8.75001 3.33325V3.89992C6.35835 4.46659 5.00001 6.59992 5.00001 9.16658V13.3333L3.33335 14.9999V15.8333H16.6667V14.9999L15 13.3333V9.16658ZM10 18.3333C10.1167 18.3333 10.225 18.3249 10.3333 18.2999C10.875 18.1833 11.3167 17.8166 11.5333 17.3166C11.6167 17.1166 11.6583 16.8999 11.6583 16.6666H8.32501C8.33335 17.5833 9.07501 18.3333 10 18.3333Z" fill="#6E8BB7"/>
</svg>
