<svg width="20" height="20" viewBox="0 0 20 20" fill="none" xmlns="http://www.w3.org/2000/svg">
<g clip-path="url(#clip0_1848_413)">
<path d="M16.2 10.8251L16.1917 10.8417C16.225 10.5667 16.2583 10.2834 16.2583 10.0001C16.2583 9.71675 16.2333 9.45008 16.2 9.17508L16.2083 9.19175L18.2417 7.59175L16.2167 4.07508L13.825 5.04175L13.8333 5.05008C13.4 4.71675 12.925 4.43341 12.4083 4.21675H12.4167L12.0333 1.66675H7.975L7.60833 4.22508H7.61666C7.1 4.44175 6.625 4.72508 6.19166 5.05841L6.2 5.05008L3.8 4.07508L1.76666 7.59175L3.8 9.19175L3.80833 9.17508C3.775 9.45008 3.75 9.71675 3.75 10.0001C3.75 10.2834 3.775 10.5667 3.81666 10.8417L3.80833 10.8251L2.05833 12.2001L1.78333 12.4167L3.80833 15.9167L6.20833 14.9584L6.19166 14.9251C6.63333 15.2667 7.10833 15.5501 7.63333 15.7667H7.60833L7.98333 18.3334H12.025C12.025 18.3334 12.05 18.1834 12.075 17.9834L12.3917 15.7751H12.3833C12.9 15.5584 13.3833 15.2751 13.825 14.9334L13.8083 14.9667L16.2083 15.9251L18.2333 12.4251C18.2333 12.4251 18.1167 12.3251 17.9583 12.2084L16.2 10.8251ZM10 12.9167C8.39166 12.9167 7.08333 11.6084 7.08333 10.0001C7.08333 8.39175 8.39166 7.08342 10 7.08342C11.6083 7.08342 12.9167 8.39175 12.9167 10.0001C12.9167 11.6084 11.6083 12.9167 10 12.9167Z" fill="#6E8BB7"/>
</g>
<defs>
<clipPath id="clip0_1848_413">
<rect width="20" height="20" fill="white"/>
</clipPath>
</defs>
</svg>
